<svg width="44" height="44" viewBox="0 0 44 44" fill="none" xmlns="http://www.w3.org/2000/svg">
<path d="M1.08691 24.1634C1.08691 26.4689 1.54101 28.7518 2.42329 30.8818C3.30556 33.0118 4.59872 34.9472 6.22895 36.5774C7.85917 38.2076 9.79453 39.5008 11.9245 40.383C14.0545 41.2653 16.3374 41.7194 18.6429 41.7194C20.9484 41.7194 23.2313 41.2653 25.3613 40.383C27.4913 39.5008 29.4267 38.2076 31.0569 36.5774C32.6871 34.9472 33.9803 33.0118 34.8625 30.8818C35.7448 28.7518 36.1989 26.4689 36.1989 24.1634C36.1989 21.8579 35.7448 19.575 34.8625 17.445C33.9803 15.315 32.6871 13.3797 31.0569 11.7495C29.4267 10.1192 27.4913 8.82606 25.3613 7.94379C23.2313 7.06152 20.9484 6.60742 18.6429 6.60742C16.3374 6.60742 14.0545 7.06152 11.9245 7.94379C9.79453 8.82606 7.85917 10.1192 6.22895 11.7495C4.59872 13.3797 3.30556 15.315 2.42329 17.445C1.54101 19.575 1.08691 21.8579 1.08691 24.1634Z" fill="#BCD0E3"/>
<path d="M2.4668 17.0496L19.935 14.2793L22.7229 31.8546L5.25469 34.6254L2.4668 17.0496Z" fill="white" stroke="#0B3573" stroke-width="0.5" stroke-linecap="round" stroke-linejoin="round"/>
<path d="M4.40145 19.8381L3.92261 16.8193" stroke="#0B3573" stroke-width="0.5" stroke-linecap="round" stroke-linejoin="round"/>
<path d="M4.771 22.1669L4.67883 21.585" stroke="#0B3573" stroke-width="0.5" stroke-linecap="round" stroke-linejoin="round"/>
<path d="M5.96045 16.4964L23.4287 13.7256L26.2166 31.3013L8.74834 34.0717L5.96045 16.4964Z" fill="#6392BD"/>
<path d="M5.96045 16.4964L23.4287 13.7256L26.2166 31.3013L8.74834 34.0717L5.96045 16.4964Z" stroke="#0B3573" stroke-width="0.5" stroke-linecap="round" stroke-linejoin="round"/>
<path d="M7.29295 34.3024L6.36951 28.4795" stroke="#0B3573" stroke-width="0.5" stroke-linecap="round" stroke-linejoin="round"/>
<path d="M24.5539 20.8196C24.8479 22.6726 25.866 24.333 27.3842 25.4355C28.9024 26.5379 30.7963 26.9921 32.6494 26.6982L15.1812 29.469C14.2637 29.6145 13.3265 29.5779 12.4231 29.3612C11.5197 29.1446 10.6679 28.7521 9.91616 28.2062C9.16446 27.6603 8.52764 26.9717 8.04206 26.1797C7.55649 25.3877 7.23166 24.5079 7.08612 23.5903L6.03759 16.9809C6.02746 16.9172 6.02998 16.8521 6.04501 16.7894C6.06004 16.7266 6.08728 16.6675 6.12519 16.6153C6.16309 16.563 6.21092 16.5188 6.26592 16.4851C6.32093 16.4514 6.38204 16.4288 6.44577 16.4187L22.9436 13.802C23.0073 13.7919 23.0724 13.7944 23.1351 13.8094C23.1979 13.8244 23.2571 13.8517 23.3093 13.8896C23.3615 13.9275 23.4057 13.9753 23.4394 14.0303C23.4732 14.0853 23.4957 14.1464 23.5058 14.2102L24.5539 20.8196Z" fill="white"/>
<path d="M24.2024 18.6036L6.7342 21.3743L6.03723 16.9809C6.02709 16.9172 6.02961 16.8521 6.04464 16.7894C6.05967 16.7266 6.08692 16.6675 6.12482 16.6153C6.16273 16.563 6.21055 16.5188 6.26556 16.4851C6.32056 16.4514 6.38168 16.4288 6.4454 16.4187L22.9437 13.802C23.0074 13.7919 23.0725 13.7944 23.1352 13.8094C23.198 13.8244 23.2571 13.8517 23.3093 13.8896C23.3616 13.9275 23.4058 13.9753 23.4395 14.0303C23.4732 14.0853 23.4958 14.1464 23.5059 14.2102L24.2024 18.6036Z" fill="#6392BD"/>
<path d="M24.5539 20.8196C24.8479 22.6726 25.866 24.333 27.3842 25.4355C28.9024 26.5379 30.7963 26.9921 32.6494 26.6982L15.1812 29.469C14.2637 29.6145 13.3265 29.5779 12.4231 29.3612C11.5197 29.1446 10.6679 28.7521 9.91616 28.2062C9.16446 27.6603 8.52764 26.9717 8.04206 26.1797C7.55649 25.3877 7.23166 24.5079 7.08612 23.5903L6.03759 16.9809C6.02746 16.9172 6.02998 16.8521 6.04501 16.7894C6.06004 16.7266 6.08728 16.6675 6.12519 16.6153C6.16309 16.563 6.21092 16.5188 6.26592 16.4851C6.32093 16.4514 6.38204 16.4288 6.44577 16.4187L22.9436 13.802C23.0073 13.7919 23.0724 13.7944 23.1351 13.8094C23.1979 13.8244 23.2571 13.8517 23.3093 13.8896C23.3615 13.9275 23.4057 13.9753 23.4394 14.0303C23.4732 14.0853 23.4957 14.1464 23.5058 14.2102L24.5539 20.8196Z" stroke="#0B3573" stroke-width="0.5" stroke-linecap="round" stroke-linejoin="round"/>
<path d="M14.4689 14.3105C14.5102 14.5851 14.5839 14.8538 14.6883 15.111L15.6978 14.9513C15.5678 14.7025 15.4798 14.4339 15.4375 14.1564C15.3683 13.7161 15.4091 13.2654 15.5563 12.8446C15.7035 12.4239 15.9525 12.0461 16.2812 11.7449C16.6098 11.4437 17.0079 11.2285 17.4399 11.1185C17.8719 11.0085 18.3243 11.0071 18.757 11.1144C19.1897 11.2217 19.5891 11.4344 19.9196 11.7335C20.2501 12.0327 20.5015 12.4089 20.6513 12.8288C20.8011 13.2486 20.8447 13.699 20.7782 14.1398C20.7118 14.5806 20.5372 14.9981 20.2702 15.3551C20.2281 15.408 20.1972 15.469 20.1793 15.5342C20.1614 15.5995 20.157 15.6677 20.1662 15.7347C20.1818 15.8306 20.2254 15.9197 20.2915 15.991C20.3576 16.0622 20.4432 16.1123 20.5377 16.135C20.6321 16.1578 20.7312 16.1521 20.8224 16.1188C20.9137 16.0854 20.9931 16.0259 21.0506 15.9476C21.4077 15.4766 21.6455 14.9262 21.7437 14.3433C21.8418 13.7604 21.7974 13.1625 21.6141 12.6005C21.3241 11.7231 20.7151 10.9865 19.9077 10.5368C19.1003 10.087 18.1535 9.95695 17.2548 10.1723C16.356 10.3876 15.5709 10.9325 15.0549 11.6993C14.539 12.466 14.3298 13.3986 14.4689 14.3122V14.3105Z" fill="white" stroke="#0B3573" stroke-width="0.5" stroke-linecap="round" stroke-linejoin="round"/>
<path d="M9.13143 15.1572C9.17284 15.4317 9.2465 15.7004 9.35088 15.9577L10.3604 15.798C10.2304 15.5492 10.1424 15.2806 10.1001 15.0031C10.031 14.5628 10.072 14.1123 10.2192 13.6916C10.3665 13.271 10.6156 12.8933 10.9442 12.5922C11.2728 12.2912 11.6708 12.0761 12.1027 11.9661C12.5346 11.8562 12.987 11.8548 13.4196 11.962C13.8522 12.0693 14.2515 12.2819 14.582 12.5809C14.9125 12.88 15.1639 13.2561 15.3138 13.6758C15.4637 14.0955 15.5074 14.5458 15.4411 14.9865C15.3748 15.4273 15.2005 15.8447 14.9337 16.2018C14.8919 16.2527 14.8608 16.3116 14.8423 16.3749C14.8238 16.4382 14.8182 16.5045 14.8259 16.57C14.8336 16.6354 14.8545 16.6987 14.8872 16.7559C14.9199 16.8132 14.9638 16.8632 15.0163 16.9031C15.0688 16.9429 15.1288 16.9718 15.1928 16.9879C15.2567 17.0041 15.3232 17.0072 15.3883 16.997C15.4535 16.9868 15.5159 16.9637 15.5718 16.9288C15.6278 16.894 15.6762 16.8482 15.7141 16.7943C16.0712 16.3233 16.309 15.7729 16.4071 15.19C16.5052 14.6071 16.4608 14.0092 16.2776 13.4472C15.9876 12.5697 15.3785 11.8332 14.5712 11.3835C13.7638 10.9337 12.817 10.8036 11.9182 11.0189C11.0195 11.2342 10.2344 11.7792 9.7184 12.546C9.20244 13.3127 8.99326 14.2453 9.13231 15.1589L9.13143 15.1572Z" fill="white" stroke="#0B3573" stroke-width="0.5" stroke-linecap="round" stroke-linejoin="round"/>
<path d="M3.79398 16.0038C3.83518 16.2784 3.90885 16.5471 4.01343 16.8044L5.0229 16.6446C4.89291 16.3958 4.80497 16.1272 4.76263 15.8497C4.69305 15.4092 4.73359 14.9584 4.88063 14.5373C5.02767 14.1163 5.27664 13.7382 5.60533 13.4368C5.93402 13.1354 6.33221 12.9201 6.76437 12.81C7.19652 12.6999 7.64922 12.6984 8.08206 12.8058C8.5149 12.9132 8.91442 13.1261 9.24499 13.4254C9.57556 13.7248 9.82689 14.1013 9.97657 14.5214C10.1262 14.9415 10.1696 15.3921 10.1028 15.833C10.036 16.274 9.86103 16.6915 9.5936 17.0484C9.5518 17.0994 9.52071 17.1582 9.5022 17.2215C9.48368 17.2848 9.47811 17.3511 9.48582 17.4166C9.49354 17.4821 9.51438 17.5453 9.54709 17.6025C9.57981 17.6598 9.62374 17.7098 9.67624 17.7497C9.72874 17.7896 9.78875 17.8184 9.85267 17.8346C9.91658 17.8507 9.9831 17.8538 10.0482 17.8436C10.1134 17.8335 10.1758 17.8103 10.2318 17.7755C10.2877 17.7406 10.3361 17.6949 10.374 17.6409C10.7315 17.17 10.9697 16.6196 11.0682 16.0367C11.1667 15.4537 11.1226 14.8556 10.9397 14.2934C10.6497 13.4159 10.0406 12.6794 9.23328 12.2296C8.4259 11.7799 7.47907 11.6498 6.58032 11.8651C5.68157 12.0804 4.89646 12.6254 4.38051 13.3922C3.86455 14.1589 3.65537 15.0915 3.79442 16.0051L3.79398 16.0038Z" fill="white" stroke="#0B3573" stroke-width="0.5" stroke-linecap="round" stroke-linejoin="round"/>
<path d="M6.73462 21.3743L24.2024 18.6035" stroke="#0B3573" stroke-width="0.5" stroke-linecap="round" stroke-linejoin="round"/>
<path d="M11.5419 20.6123L11.8794 22.7401C12.1676 24.6022 13.1805 26.2747 14.6971 27.3929C16.2136 28.5111 18.1108 28.9842 19.9749 28.7091" stroke="#0B3573" stroke-width="0.5" stroke-linecap="round" stroke-linejoin="round"/>
<path d="M15.951 19.9126L16.2728 21.9421C16.5693 23.8239 17.5938 25.5136 19.1252 26.6468C20.6565 27.7799 22.572 28.2655 24.4582 27.9989" stroke="#0B3573" stroke-width="0.5" stroke-linecap="round" stroke-linejoin="round"/>
<path d="M20.5327 19.1855L20.836 21.0952C21.4465 24.9461 24.8818 27.7336 28.6045 27.3399" stroke="#0B3573" stroke-width="0.5" stroke-linecap="round" stroke-linejoin="round"/>
<path d="M7.45789 24.9937L24.7102 21.8047" stroke="#0B3573" stroke-width="0.5" stroke-linecap="round" stroke-linejoin="round"/>
<path d="M9.52734 27.9031L26.4294 24.603" stroke="#0B3573" stroke-width="0.5" stroke-linecap="round" stroke-linejoin="round"/>
<path d="M8.25806 37.5986C8.25806 37.8023 9.08092 37.9977 10.5456 38.1418C12.0103 38.2858 13.9969 38.3667 16.0683 38.3667C18.1397 38.3667 20.1262 38.2858 21.5909 38.1418C23.0556 37.9977 23.8785 37.8023 23.8785 37.5986C23.8785 37.3949 23.0556 37.1996 21.5909 37.0555C20.1262 36.9115 18.1397 36.8306 16.0683 36.8306C13.9969 36.8306 12.0103 36.9115 10.5456 37.0555C9.08092 37.1996 8.25806 37.3949 8.25806 37.5986Z" fill="#6392BD"/>
<path d="M32.8031 2.32143C31.3498 2.45902 29.9498 2.9395 28.7182 3.72339C27.4867 4.50728 26.4587 5.5722 25.7188 6.83065C24.9789 8.0891 24.5481 9.50516 24.4619 10.9625C24.3757 12.4198 24.6365 13.8768 25.2229 15.2137L22.9968 20.3018C22.9616 20.3824 22.9502 20.4713 22.9638 20.5581C22.9774 20.6449 23.0156 20.726 23.0737 20.7919C23.1318 20.8578 23.2075 20.9057 23.2919 20.9301C23.3763 20.9545 23.4659 20.9543 23.5502 20.9295L28.8469 19.3714C30.0938 20.1386 31.5053 20.5982 32.9649 20.7123C34.4244 20.8263 35.8902 20.5916 37.2411 20.0274C38.5921 19.4632 39.7895 18.5858 40.7344 17.4675C41.6793 16.3493 42.3447 15.0223 42.6756 13.5962C43.0066 12.1701 42.9935 10.6857 42.6376 9.26559C42.2816 7.8455 41.593 6.53045 40.6285 5.429C39.6641 4.32756 38.4515 3.47132 37.0908 2.93098C35.7301 2.39065 34.2605 2.18171 32.8031 2.32143Z" fill="white"/>
<path d="M32.8031 2.32143C31.3498 2.45902 29.9498 2.9395 28.7182 3.72339C27.4867 4.50728 26.4587 5.5722 25.7188 6.83065C24.9789 8.0891 24.5481 9.50516 24.4619 10.9625C24.3757 12.4198 24.6365 13.8768 25.2229 15.2137L22.9968 20.3018C22.9616 20.3824 22.9502 20.4713 22.9638 20.5581C22.9774 20.6449 23.0156 20.726 23.0737 20.7919C23.1318 20.8578 23.2075 20.9057 23.2919 20.9301C23.3763 20.9545 23.4659 20.9543 23.5502 20.9295L28.8469 19.3714C30.0938 20.1386 31.5053 20.5982 32.9649 20.7123C34.4244 20.8263 35.8902 20.5916 37.2411 20.0274C38.5921 19.4632 39.7895 18.5858 40.7344 17.4675C41.6793 16.3493 42.3447 15.0223 42.6756 13.5962C43.0066 12.1701 42.9935 10.6857 42.6376 9.26559C42.2816 7.8455 41.593 6.53045 40.6285 5.429C39.6641 4.32756 38.4515 3.47132 37.0908 2.93098C35.7301 2.39065 34.2605 2.18171 32.8031 2.32143Z" stroke="#0B3573" stroke-width="0.5" stroke-linecap="round" stroke-linejoin="round"/>
<path d="M33.9983 12.1467C33.978 12.2263 33.9318 12.2969 33.8669 12.3473C33.8021 12.3977 33.7223 12.4251 33.6401 12.4251C33.558 12.4251 33.4782 12.3977 33.4133 12.3473C33.3484 12.2969 33.3022 12.2263 33.282 12.1467C31.8336 6.44582 31.8964 6.70433 31.8907 6.64552C31.8704 6.40345 31.9005 6.1598 31.9792 5.92999C32.0579 5.70017 32.1834 5.48919 32.3479 5.31039C32.5123 5.13158 32.7121 4.98885 32.9345 4.89121C33.1569 4.79358 33.3972 4.74316 33.6401 4.74316C33.883 4.74316 34.1233 4.79358 34.3457 4.89121C34.5682 4.98885 34.7679 5.13158 34.9324 5.31039C35.0968 5.48919 35.2223 5.70017 35.301 5.92999C35.3797 6.1598 35.4099 6.40345 35.3896 6.64552C35.3839 6.70258 35.4449 6.44406 33.9983 12.1467Z" fill="#E6B045" stroke="#0B3573" stroke-width="0.5" stroke-linecap="round" stroke-linejoin="round"/>
<path d="M35.3974 15.5305C35.3974 15.8777 35.2945 16.2172 35.1016 16.5059C34.9087 16.7946 34.6345 17.0196 34.3137 17.1525C33.9929 17.2853 33.6399 17.3201 33.2993 17.2524C32.9588 17.1846 32.646 17.0174 32.4004 16.7719C32.1549 16.5264 31.9877 16.2136 31.92 15.873C31.8522 15.5324 31.887 15.1795 32.0199 14.8587C32.1527 14.5379 32.3778 14.2637 32.6665 14.0708C32.9552 13.8779 33.2946 13.7749 33.6418 13.7749C34.1074 13.7749 34.554 13.9599 34.8832 14.2891C35.2125 14.6183 35.3974 15.0649 35.3974 15.5305Z" fill="#E6B045" stroke="#0B3573" stroke-width="0.5" stroke-linecap="round" stroke-linejoin="round"/>
<path d="M32.8031 2.32143C31.3498 2.45902 29.9498 2.9395 28.7182 3.72339C27.4867 4.50728 26.4587 5.5722 25.7188 6.83065C24.9789 8.0891 24.5481 9.50516 24.4619 10.9625C24.3757 12.4198 24.6365 13.8768 25.2229 15.2137L22.9968 20.3018C22.9616 20.3824 22.9502 20.4713 22.9638 20.5581C22.9774 20.6449 23.0156 20.726 23.0737 20.7919C23.1318 20.8578 23.2075 20.9057 23.2919 20.9301C23.3763 20.9545 23.4659 20.9543 23.5502 20.9295L28.8469 19.3714C30.0938 20.1386 31.5053 20.5982 32.9649 20.7123C34.4244 20.8263 35.8902 20.5916 37.2411 20.0274C38.5921 19.4632 39.7895 18.5858 40.7344 17.4675C41.6793 16.3493 42.3447 15.0223 42.6756 13.5962C43.0066 12.1701 42.9935 10.6857 42.6376 9.26559C42.2816 7.8455 41.593 6.53045 40.6285 5.429C39.6641 4.32756 38.4515 3.47132 37.0908 2.93098C35.7301 2.39065 34.2605 2.18171 32.8031 2.32143Z" stroke="#0B3573" stroke-width="0.5" stroke-linecap="round" stroke-linejoin="round"/>
</svg>
