<svg width="79" height="75" viewBox="0 0 79 75" fill="none" xmlns="http://www.w3.org/2000/svg">
<path d="M70 40C70 59.33 54.33 75 35 75C15.67 75 0 59.33 0 40C0 20.67 15.67 5 35 5C54.33 5 70 20.67 70 40Z" fill="#E4ECF4"/>
<path d="M4.51172 26C4.51172 25.168 5.17969 24.5 6.01172 24.5H64.1836C64.293 24.5 64.3984 24.5117 64.5 24.5332C64.6445 24.5645 64.7812 24.6152 64.9062 24.6836C64.9844 24.7266 65.0586 24.7773 65.1289 24.8359C65.1953 24.8906 65.2578 24.9512 65.3164 25.0156C65.3867 25.0957 65.4492 25.1816 65.5 25.2734C65.5391 25.3457 65.5742 25.4219 65.6016 25.5L65.6445 25.6523L65.6719 25.8184L65.6836 26V41.5C65.6836 42.3281 66.3516 43 67.1836 43C68.0117 43 68.6836 42.3281 68.6836 41.5V26C68.6836 23.5117 66.6719 21.5 64.1836 21.5H6.01172C5.56641 21.5 5.13672 21.5645 4.73047 21.6836C4.39844 21.7812 4.08594 21.916 3.79297 22.082C3.55469 22.2168 3.33203 22.373 3.125 22.5488C3.01562 22.6387 2.91016 22.7344 2.8125 22.834C2.00781 23.6465 1.51172 24.7637 1.51172 26V64.6895C1.51172 67.1777 3.52344 69.1895 6.01172 69.1895H40.5C41.3281 69.1895 42 68.5176 42 67.6895C42 66.8613 41.3281 66.1895 40.5 66.1895H6.01172C5.17969 66.1895 4.51172 65.5215 4.51172 64.6895V26Z" fill="#014975"/>
<path d="M17 33.2695C17 32.5723 18.1133 32 19.5 32C20.875 32 22 32.5664 22 33.2695V36.7305C22 37.4277 20.875 38 19.5 38C18.125 38 17 37.4336 17 36.7305V33.2695Z" fill="#014975"/>
<path d="M35.5 32C34.1133 32 33 32.5723 33 33.2695V36.7305C33 37.4336 34.125 38 35.5 38C36.875 38 38 37.4277 38 36.7305V33.2695C38 32.5664 36.875 32 35.5 32Z" fill="#014975"/>
<path d="M49 33.2695C49 32.5723 50.1133 32 51.5 32C52.3164 32 53.043 32.1992 53.5 32.5078C53.6211 32.5918 53.7266 32.6816 53.8047 32.7793C53.9297 32.9297 54 33.0957 54 33.2695V36.7305C54 37.4277 52.875 38 51.5 38C50.125 38 49 37.4336 49 36.7305V33.2695Z" fill="#014975"/>
<path d="M19.5 49C18.1133 49 17 49.5723 17 50.2695V53.7305C17 53.9277 17.0898 54.1133 17.2461 54.2793C17.3906 54.4297 17.5898 54.5645 17.832 54.6738C18.2734 54.877 18.8594 55 19.5 55C20.875 55 22 54.4277 22 53.7305V50.2695C22 49.5664 20.875 49 19.5 49Z" fill="#014975"/>
<path d="M34.4297 49.1211C34.7539 49.043 35.1172 49 35.5 49C36.875 49 38 49.5664 38 50.2695V53.7305C38 54.4277 36.875 55 35.5 55C34.125 55 33 54.4336 33 53.7305V50.2695C33 49.7656 33.582 49.3262 34.4297 49.1211Z" fill="#014975"/>
<path fill-rule="evenodd" clip-rule="evenodd" d="M54 0C52.3364 0 51 1.42926 51 3.17613V7.51953H18V3.17613C18 1.41482 16.65 0 15 0C13.3364 0 12 1.42926 12 3.17613V7.51953H5.57C4.15 7.51953 3 8.66953 3 10.0895V16.6895C3 18.1095 4.15 19.2595 5.57 19.2595H64.61C66.03 19.2595 67.18 18.1095 67.18 16.6895V10.0895C67.18 8.66953 66.03 7.51953 64.61 7.51953H57V3.17613C57 1.41482 55.65 0 54 0ZM17.0467 14.1408C17.3425 14.0167 17.4874 13.7913 17.5505 13.491C17.41 13.7305 17.2402 13.949 17.0467 14.1408Z" fill="#2063A0"/>
<path d="M71.1317 53.06C71.1317 57.5114 67.5231 61.12 63.0717 61.12C58.6203 61.12 55.0117 57.5114 55.0117 53.06C55.0117 48.6086 58.6203 45 63.0717 45C67.5231 45 71.1317 48.6086 71.1317 53.06Z" fill="#2063A0"/>
<path d="M71.21 61.21C71.57 60.84 72.1 60.67 72.57 60.87H72.58C75.83 62.23 78.15 65.57 78.15 69.51V73.3599C78.15 74.0399 77.64 74.5899 77 74.5899H49.15C48.52 74.5899 48 74.0399 48 73.3599V69.51C48 65.57 50.31 62.23 53.57 60.87C54.04 60.68 54.57 60.85 54.93 61.21C57.05 63.37 59.91 64.6999 63.07 64.6999C66.23 64.6999 69.09 63.37 71.21 61.21Z" fill="#2063A0"/>
</svg>