<svg width="36" height="36" viewBox="0 0 36 36" fill="none" xmlns="http://www.w3.org/2000/svg">
<rect width="36" height="36" rx="18" fill="#E4ECF4"/>
<path d="M24.125 16.3667C23.5583 13.4917 21.0333 11.3334 18 11.3334C15.5917 11.3334 13.5 12.7 12.4583 14.7C9.95 14.9667 8 17.0917 8 19.6667C8 22.425 10.2417 24.6667 13 24.6667H23.8333C26.1333 24.6667 28 22.8 28 20.5C28 18.3 26.2917 16.5167 24.125 16.3667ZM23.8333 23H13C11.1583 23 9.66667 21.5084 9.66667 19.6667C9.66667 17.9584 10.9417 16.5334 12.6333 16.3584L13.525 16.2667L13.9417 15.475C14.7333 13.95 16.2833 13 18 13C20.1833 13 22.0667 14.55 22.4917 16.6917L22.7417 17.9417L24.0167 18.0334C25.3167 18.1167 26.3333 19.2084 26.3333 20.5C26.3333 21.875 25.2083 23 23.8333 23ZM14.6667 18.8334H16.7917V21.3334H19.2083V18.8334H21.3333L18 15.5L14.6667 18.8334Z" fill="#2063A0"/>
</svg>
